<?xml version="1.0" encoding="UTF-8" standalone="no"?>
<svg width="52px" height="29px" viewBox="0 0 52 29" version="1.1" xmlns="http://www.w3.org/2000/svg" xmlns:xlink="http://www.w3.org/1999/xlink">
    <!-- Generator: Sketch 3.6.1 (26313) - http://www.bohemiancoding.com/sketch -->
    <title>training</title>
    <desc>Created with Sketch.</desc>
    <defs></defs>
    <g id="Page-1" stroke="none" stroke-width="1" fill="none" fill-rule="evenodd">
        <g id="training" transform="translate(1.000000, 1.000000)" stroke="#979797" fill="#D8D8D8">
            <g id="Group" transform="translate(33.000000, 0.000000)">
                <ellipse id="Oval-1" transform="translate(10.000000, 11.500000) scale(-1, 1) translate(-10.000000, -11.500000) " cx="10" cy="11.5" rx="7" ry="11.5"></ellipse>
                <ellipse id="Oval-1" transform="translate(9.000000, 11.500000) scale(-1, 1) translate(-9.000000, -11.500000) " cx="9" cy="11.5" rx="7" ry="11.5"></ellipse>
                <ellipse id="Oval-1" transform="translate(8.000000, 11.500000) scale(-1, 1) translate(-8.000000, -11.500000) " cx="8" cy="11.5" rx="7" ry="11.5"></ellipse>
                <ellipse id="Oval-1" transform="translate(7.000000, 11.500000) scale(-1, 1) translate(-7.000000, -11.500000) " cx="7" cy="11.5" rx="7" ry="11.5"></ellipse>
            </g>
            <rect id="Rectangle-9" transform="translate(25.123156, 14.467898) rotate(-10.000000) translate(-25.123156, -14.467898) " x="9.19209178" y="11.967898" width="31.8621284" height="5"></rect>
            <g id="Group-2" transform="translate(0.000000, 4.000000)">
                <ellipse id="Oval-1" cx="10" cy="11.5" rx="7" ry="11.5"></ellipse>
                <ellipse id="Oval-1" cx="9" cy="11.5" rx="7" ry="11.5"></ellipse>
                <ellipse id="Oval-1" cx="8" cy="11.5" rx="7" ry="11.5"></ellipse>
                <ellipse id="Oval-1" cx="7" cy="11.5" rx="7" ry="11.5"></ellipse>
            </g>
        </g>
    </g>
</svg>