<?xml version="1.0" encoding="UTF-8" standalone="no"?>
<svg width="53px" height="42px" viewBox="0 0 53 42" version="1.1" xmlns="http://www.w3.org/2000/svg" xmlns:xlink="http://www.w3.org/1999/xlink">
    <!-- Generator: Sketch 3.6.1 (26313) - http://www.bohemiancoding.com/sketch -->
    <title>fight</title>
    <desc>Created with Sketch.</desc>
    <defs></defs>
    <g id="Page-1" stroke="none" stroke-width="1" fill="none" fill-rule="evenodd">
        <g id="fight" transform="translate(-7.000000, -7.000000)" stroke="#979797">
            <g id="schwert-rechts" transform="translate(39.975834, 27.619882) rotate(-45.000000) translate(-39.975834, -27.619882) translate(29.475834, -0.380118)">
                <path d="M6.36984004,34.4209443 L6.36984004,8.60523607 L10.4233746,-2.84217094e-14 L13.8978328,8.60523607 L13.8978328,34.4209443 L6.36984004,34.4209443 Z" id="Path-1" fill="#FFFFFF"></path>
                <path d="M20.2676729,34.4209443 L3.73034936e-14,34.4209443 L3.73034936e-14,36.7156739 L20.2676729,36.7156739 L20.2676729,34.4209443 Z" id="Path-2" fill="#D8D8D8"></path>
                <path d="M7.84921584,36.7156739 C7.84921584,36.7156739 4.06024598,48.1984186 6.76344765,52.2050988 C9.09346495,56.022999 11.0715058,56.099041 13.2780568,52.2050988 C15.7872592,48.1223766 12.7351727,36.7156739 12.7351727,36.7156739 L7.84921584,36.7156739 Z" id="Path-3" fill="#D8D8D8"></path>
            </g>
            <g id="schwert-links" transform="translate(28.144001, 28.136964) rotate(-315.000000) translate(-28.144001, -28.136964) translate(17.644001, 0.136964)">
                <path d="M6.36984004,34.4209443 L6.36984004,8.60523607 L10.4233746,-3.55271368e-14 L13.8978328,8.60523607 L13.8978328,34.4209443 L6.36984004,34.4209443 Z" id="Path-1" fill="#FFFFFF"></path>
                <path d="M20.2676729,34.4209443 L-7.81597009e-14,34.4209443 L-7.81597009e-14,36.7156739 L20.2676729,36.7156739 L20.2676729,34.4209443 Z" id="Path-2" fill="#D8D8D8"></path>
                <path d="M7.84921584,36.7156739 C7.84921584,36.7156739 4.06024598,48.1984186 6.76344765,52.2050988 C9.09346495,56.022999 11.0715058,56.099041 13.2780568,52.2050988 C15.7872592,48.1223766 12.7351727,36.7156739 12.7351727,36.7156739 L7.84921584,36.7156739 Z" id="Path-3" fill="#D8D8D8"></path>
            </g>
        </g>
    </g>
</svg>